<svg id="Layer_1" data-name="Layer 1" xmlns="http://www.w3.org/2000/svg" xmlns:xlink="http://www.w3.org/1999/xlink" viewBox="0 0 3360 2100"><defs><style>.cls-1{fill:url(#radial-gradient);}.cls-2,.cls-3{fill:#fff;}.cls-2{opacity:0.54;}.cls-3{opacity:0.52;}.cls-4{fill:url(#radial-gradient-2);}</style><radialGradient id="radial-gradient" cx="1680" cy="1050" r="2551.58" gradientUnits="userSpaceOnUse"><stop offset="0" stop-color="#07112b"/><stop offset="1" stop-color="#030916"/></radialGradient><radialGradient id="radial-gradient-2" cx="1680" cy="1050" r="2551.58" gradientUnits="userSpaceOnUse"><stop offset="0" stop-color="#07112b" stop-opacity="0"/><stop offset="1" stop-color="#030916"/></radialGradient></defs><title>Artboard 5 copy</title><rect class="cls-1" width="3360" height="2100"/><path class="cls-2" d="M1460,181.42l-7.94-.49a2.63,2.63,0,0,1-2.46-2.47l-.5-7.94c0-3.35-2.07-6.06-5.41-6.06s-5.41,2.71-5.41,6.06l-.5,7.94a2.64,2.64,0,0,1-2.46,2.47l-8,.49c-3.34,0-6,2.07-6,5.41s2.71,5.41,6,5.41l8,.5a2.63,2.63,0,0,1,2.46,2.47l.5,7.94c0,3.34,2.06,6,5.41,6s5.41-2.71,5.41-6l.5-7.94a2.62,2.62,0,0,1,2.46-2.47l7.94-.5c3.35,0,6.06-2.06,6.06-5.41S1463.31,181.42,1460,181.42Z"/><path class="cls-2" d="M168.57,717.66l-8.19,7.22a3.62,3.62,0,0,1-4.78,0l-8.18-7.22c-3.24-3.24-7.87-3.87-11.11-.63s-2.62,7.88.62,11.12l7.22,8.18a3.62,3.62,0,0,1,0,4.78l-7.22,8.18c-3.24,3.25-3.86,7.88-.62,11.12s7.87,2.61,11.11-.63l8.18-7.22a3.62,3.62,0,0,1,4.78,0l8.19,7.22c3.24,3.24,7.87,3.87,11.11.63s2.62-7.87-.62-11.12l-7.22-8.18a3.6,3.6,0,0,1,0-4.78l7.22-8.18c3.24-3.24,3.86-7.88.62-11.12S171.81,714.42,168.57,717.66Z"/><circle class="cls-3" cx="869.44" cy="331.32" r="6.47"/><path class="cls-2" d="M220.51,73.6l-7.95-.5a2.64,2.64,0,0,1-2.46-2.47l-.5-7.94c0-3.35-2.06-6.06-5.41-6.06s-5.41,2.71-5.41,6.06l-.5,7.94a2.63,2.63,0,0,1-2.46,2.47l-7.95.5c-3.34,0-6.05,2.06-6.05,5.41s2.71,5.41,6.05,5.41l7.95.49a2.63,2.63,0,0,1,2.46,2.47l.5,7.94c0,3.35,2.07,6.06,5.41,6.06s5.41-2.71,5.41-6.06l.5-7.94a2.64,2.64,0,0,1,2.46-2.47l7.95-.49c3.34,0,6.05-2.07,6.05-5.41S223.85,73.6,220.51,73.6Z"/><path class="cls-2" d="M481.64,348.28l-7.95-.49a2.64,2.64,0,0,1-2.46-2.47l-.5-7.94c0-3.35-2.07-6.06-5.41-6.06s-5.41,2.71-5.41,6.06l-.5,7.94a2.64,2.64,0,0,1-2.46,2.47l-7.95.49c-3.34,0-6.05,2.07-6.05,5.41s2.71,5.41,6.05,5.41l7.95.5a2.64,2.64,0,0,1,2.46,2.47l.5,7.94c0,3.34,2.07,6.06,5.41,6.06s5.41-2.72,5.41-6.06l.5-7.94a2.64,2.64,0,0,1,2.46-2.47l7.95-.5c3.34,0,6.05-2.06,6.05-5.41S485,348.28,481.64,348.28Z"/><path class="cls-2" d="M731.29,1755.29l-8.19,7.22a3.61,3.61,0,0,1-4.77,0l-8.19-7.22c-3.24-3.24-7.87-3.87-11.11-.63s-2.62,7.88.62,11.12l7.22,8.18a3.62,3.62,0,0,1,0,4.78l-7.22,8.18c-3.24,3.24-3.86,7.88-.62,11.12s7.87,2.61,11.11-.63l8.19-7.22a3.61,3.61,0,0,1,4.77,0l8.19,7.22c3.24,3.24,7.87,3.87,11.11.63s2.62-7.88-.62-11.12l-7.22-8.18a3.6,3.6,0,0,1,0-4.78l7.22-8.18c3.24-3.24,3.86-7.88.62-11.12S734.53,1752.05,731.29,1755.29Z"/><circle class="cls-3" cx="3028.95" cy="925.32" r="6.47"/><path class="cls-2" d="M2836.78,1588.09l-8-.5a2.62,2.62,0,0,1-2.46-2.46l-.5-8c0-3.34-2.07-6-5.41-6s-5.41,2.71-5.41,6l-.5,8a2.62,2.62,0,0,1-2.46,2.46l-8,.5c-3.34,0-6,2.07-6,5.41s2.71,5.41,6,5.41l8,.5a2.63,2.63,0,0,1,2.46,2.46l.5,8c0,3.34,2.07,6,5.41,6s5.41-2.71,5.41-6l.5-8a2.63,2.63,0,0,1,2.46-2.46l8-.5c3.34,0,6-2.06,6-5.41S2840.12,1588.09,2836.78,1588.09Z"/><path class="cls-2" d="M2001.25,2022.93l-7.94-.49a2.65,2.65,0,0,1-2.47-2.47l-.49-7.94c0-3.35-2.07-6.06-5.42-6.06s-5.41,2.71-5.41,6.06L1979,2020a2.65,2.65,0,0,1-2.47,2.47l-7.94.49c-3.35,0-6.06,2.07-6.06,5.41s2.71,5.41,6.06,5.41l7.94.5a2.65,2.65,0,0,1,2.47,2.47l.49,7.94c0,3.35,2.07,6.06,5.41,6.06s5.42-2.71,5.42-6.06l.49-7.94a2.65,2.65,0,0,1,2.47-2.47l7.94-.5c3.35,0,6.06-2.06,6.06-5.41S2004.6,2022.93,2001.25,2022.93Z"/><path class="cls-2" d="M2538.51,1200.82l-8.19,7.22a3.6,3.6,0,0,1-4.78,0l-8.18-7.22c-3.24-3.24-7.87-3.86-11.11-.62s-2.62,7.87.62,11.11l7.22,8.19a3.61,3.61,0,0,1,0,4.77l-7.22,8.19c-3.24,3.24-3.87,7.87-.62,11.11s7.87,2.62,11.11-.62l8.18-7.22a3.6,3.6,0,0,1,4.78,0l8.19,7.22c3.24,3.24,7.87,3.86,11.11.62s2.62-7.87-.62-11.11l-7.22-8.19a3.59,3.59,0,0,1,0-4.77l7.22-8.19c3.24-3.24,3.86-7.87.62-11.11S2541.75,1197.58,2538.51,1200.82Z"/><circle class="cls-3" cx="2064.26" cy="1261.62" r="6.47"/><circle class="cls-3" cx="2475.03" cy="1831.99" r="6.47"/><circle class="cls-3" cx="3205.59" cy="1493.24" r="6.47"/><circle class="cls-3" cx="1117.32" cy="828.02" r="6.47"/><path class="cls-2" d="M2442.51,630.47l-8-.5a2.62,2.62,0,0,1-2.46-2.46l-.5-8c0-3.34-2.07-6-5.41-6s-5.41,2.71-5.41,6l-.5,8a2.62,2.62,0,0,1-2.46,2.46l-8,.5c-3.34,0-6,2.07-6,5.41s2.71,5.41,6,5.41l8,.5a2.63,2.63,0,0,1,2.46,2.46l.5,8c0,3.34,2.07,6,5.41,6s5.41-2.71,5.41-6l.5-8a2.63,2.63,0,0,1,2.46-2.46l8-.5c3.34,0,6-2.06,6-5.41S2445.85,630.47,2442.51,630.47Z"/><path class="cls-2" d="M1014.91,1262.67l-7.94-.49a2.65,2.65,0,0,1-2.47-2.47l-.49-7.94c0-3.35-2.07-6.06-5.41-6.06s-5.41,2.71-5.41,6.06l-.5,7.94a2.64,2.64,0,0,1-2.47,2.47l-7.94.49c-3.34,0-6,2.07-6,5.41s2.71,5.41,6,5.41l7.94.5a2.63,2.63,0,0,1,2.47,2.47l.5,7.94c0,3.34,2.06,6,5.41,6s5.41-2.71,5.41-6l.49-7.94A2.64,2.64,0,0,1,1007,1274l7.94-.5c3.35,0,6.06-2.06,6.06-5.41S1018.26,1262.67,1014.91,1262.67Z"/><path class="cls-2" d="M325.89,1557l-8.19,7.22a3.61,3.61,0,0,1-4.77,0l-8.19-7.22c-3.24-3.24-7.87-3.87-11.11-.63s-2.62,7.88.62,11.12l7.22,8.18a3.62,3.62,0,0,1,0,4.78l-7.22,8.18c-3.24,3.25-3.86,7.88-.62,11.12s7.87,2.62,11.11-.63l8.18-7.22a3.62,3.62,0,0,1,4.78,0l8.19,7.22c3.24,3.25,7.87,3.87,11.11.63s2.62-7.87-.62-11.12l-7.22-8.18a3.6,3.6,0,0,1,0-4.78l7.22-8.18c3.24-3.24,3.86-7.87.62-11.12S329.13,1553.77,325.89,1557Z"/><circle class="cls-3" cx="637.78" cy="988.51" r="6.47"/><path class="cls-2" d="M1978.88,203.79l-7.94-.49a2.65,2.65,0,0,1-2.47-2.47l-.5-7.94c0-3.35-2.06-6.06-5.41-6.06s-5.41,2.71-5.41,6.06l-.49,7.94a2.65,2.65,0,0,1-2.47,2.47l-7.94.49c-3.35,0-6.06,2.07-6.06,5.41s2.71,5.41,6.06,5.41l7.94.5a2.65,2.65,0,0,1,2.47,2.47l.49,7.94c0,3.34,2.07,6,5.41,6s5.41-2.71,5.41-6l.5-7.94a2.65,2.65,0,0,1,2.47-2.47l7.94-.5c3.34,0,6-2.06,6-5.41S1982.22,203.79,1978.88,203.79Z"/><path class="cls-2" d="M1482.34,1779.3l-7.95-.5a2.61,2.61,0,0,1-2.46-2.46l-.5-7.94c0-3.35-2.07-6.06-5.41-6.06s-5.41,2.71-5.41,6.06l-.5,7.94a2.62,2.62,0,0,1-2.46,2.46l-8,.5c-3.34,0-6,2.07-6,5.41s2.71,5.41,6,5.41l8,.5a2.63,2.63,0,0,1,2.46,2.46l.5,8c0,3.34,2.06,6,5.41,6s5.41-2.71,5.41-6l.5-8a2.62,2.62,0,0,1,2.46-2.46l7.95-.5c3.34,0,6.05-2.06,6.05-5.41S1485.68,1779.3,1482.34,1779.3Z"/><path class="cls-2" d="M2749.89,234.34l-8.18,7.22a3.62,3.62,0,0,1-4.78,0l-8.18-7.22c-3.24-3.24-7.88-3.86-11.12-.62s-2.61,7.87.63,11.11l7.22,8.18a3.62,3.62,0,0,1,0,4.78l-7.22,8.19c-3.24,3.24-3.87,7.87-.63,11.11s7.88,2.62,11.12-.62l8.18-7.22a3.6,3.6,0,0,1,4.78,0l8.18,7.22c3.24,3.24,7.88,3.86,11.12.62s2.61-7.87-.63-11.11l-7.22-8.19a3.62,3.62,0,0,1,0-4.78l7.22-8.18c3.24-3.24,3.87-7.87.63-11.11S2753.13,231.1,2749.89,234.34Z"/><circle class="cls-3" cx="3097.09" cy="324.86" r="6.47"/><path class="cls-2" d="M1193.92,461.34l-7.94-.49a2.64,2.64,0,0,1-2.47-2.47l-.5-7.94c0-3.35-2.06-6.06-5.41-6.06s-5.41,2.71-5.41,6.06l-.49,7.94a2.65,2.65,0,0,1-2.47,2.47l-7.94.49c-3.35,0-6.06,2.07-6.06,5.41s2.71,5.41,6.06,5.41l7.94.5a2.65,2.65,0,0,1,2.47,2.47l.49,7.94c0,3.35,2.07,6.06,5.41,6.06s5.41-2.71,5.41-6.06l.5-7.94a2.64,2.64,0,0,1,2.47-2.47l7.94-.5c3.34,0,6-2.06,6-5.41S1197.26,461.34,1193.92,461.34Z"/><rect class="cls-4" width="3360" height="2100"/></svg>