<svg id="Layer_1" data-name="Layer 1" xmlns="http://www.w3.org/2000/svg" xmlns:xlink="http://www.w3.org/1999/xlink" viewBox="0 0 615.62 511.37"><defs><style>.cls-1{fill:url(#linear-gradient);}.cls-2{fill:url(#linear-gradient-2);}.cls-3{fill:url(#linear-gradient-3);}.cls-4{fill:url(#linear-gradient-4);}.cls-5{fill:url(#linear-gradient-5);}.cls-6{fill:url(#linear-gradient-6);}.cls-7{fill:url(#linear-gradient-7);}.cls-8{fill:url(#linear-gradient-8);}.cls-9{fill:url(#linear-gradient-9);}.cls-10{fill:url(#linear-gradient-10);}.cls-11{fill:url(#linear-gradient-11);}.cls-12{fill:url(#linear-gradient-12);}.cls-13{fill:#c42727;}.cls-14{fill:url(#linear-gradient-13);}.cls-15{fill:url(#linear-gradient-14);}.cls-16{fill:url(#linear-gradient-15);}.cls-17{fill:#fff;opacity:0.08;}</style><linearGradient id="linear-gradient" x1="-381.39" y1="536.3" x2="620" y2="406.08" gradientUnits="userSpaceOnUse"><stop offset="0" stop-color="#43a1ff"/><stop offset="1" stop-color="#43a1ff" stop-opacity="0"/></linearGradient><linearGradient id="linear-gradient-2" x1="-380.49" y1="543.22" x2="620.9" y2="413" xlink:href="#linear-gradient"/><linearGradient id="linear-gradient-3" x1="-379.28" y1="552.5" x2="622.11" y2="422.28" xlink:href="#linear-gradient"/><linearGradient id="linear-gradient-4" x1="-378.22" y1="560.7" x2="623.17" y2="430.48" xlink:href="#linear-gradient"/><linearGradient id="linear-gradient-5" x1="-377.56" y1="565.74" x2="623.83" y2="435.53" xlink:href="#linear-gradient"/><linearGradient id="linear-gradient-6" x1="-374.57" y1="588.74" x2="626.82" y2="458.52" xlink:href="#linear-gradient"/><linearGradient id="linear-gradient-7" x1="-376.16" y1="576.49" x2="625.23" y2="446.28" xlink:href="#linear-gradient"/><linearGradient id="linear-gradient-8" x1="-374.82" y1="586.85" x2="626.57" y2="456.63" xlink:href="#linear-gradient"/><linearGradient id="linear-gradient-9" x1="-373.77" y1="594.89" x2="627.62" y2="464.68" xlink:href="#linear-gradient"/><linearGradient id="linear-gradient-10" x1="-372.93" y1="601.33" x2="628.46" y2="471.11" xlink:href="#linear-gradient"/><linearGradient id="linear-gradient-11" x1="-372.29" y1="606.26" x2="629.1" y2="476.04" xlink:href="#linear-gradient"/><linearGradient id="linear-gradient-12" x1="84.4" y1="356.21" x2="545.96" y2="58.81" xlink:href="#linear-gradient"/><linearGradient id="linear-gradient-13" x1="-1157.59" y1="639.48" x2="-810.99" y2="639.48" gradientTransform="matrix(0.84, -0.54, 0.54, 0.84, 704.13, -802.87)" gradientUnits="userSpaceOnUse"><stop offset="0" stop-color="#e84131"/><stop offset="1" stop-color="#c6312a"/></linearGradient><linearGradient id="linear-gradient-14" x1="-86.51" y1="430.7" x2="86.68" y2="344.11" gradientTransform="matrix(1, -0.1, 0.1, 1, 149.72, -94.63)" gradientUnits="userSpaceOnUse"><stop offset="0" stop-color="#ff9700"/><stop offset="1" stop-color="#ff7300"/></linearGradient><linearGradient id="linear-gradient-15" x1="-1145.65" y1="641.2" x2="-1003.97" y2="641.2" gradientTransform="translate(706.46 -809.45) rotate(-32.95)" gradientUnits="userSpaceOnUse"><stop offset="0" stop-color="#ffb42e"/><stop offset="1" stop-color="#f9c035"/></linearGradient></defs><title>Artboard 11</title><path class="cls-1" d="M0,482.88a29,29,0,0,1,2.29-11.73,26.76,26.76,0,0,1,6.24-9,27.65,27.65,0,0,1,9.33-5.76,32.48,32.48,0,0,1,11.47-2,34.51,34.51,0,0,1,11.81,2,28.87,28.87,0,0,1,7.43,3.91,2.31,2.31,0,0,1,.37,3.33l-8,9.64a2.34,2.34,0,0,1-3.28.29,10.57,10.57,0,0,0-2.17-1.32,12.23,12.23,0,0,0-5.1-1,11.34,11.34,0,0,0-4.27.8,10.08,10.08,0,0,0-3.47,2.32,10.83,10.83,0,0,0-2.32,3.7,13.32,13.32,0,0,0-.84,4.84,12.13,12.13,0,0,0,.88,4.76,11.4,11.4,0,0,0,2.36,3.62,10,10,0,0,0,3.47,2.32,11.12,11.12,0,0,0,4.19.8,10.62,10.62,0,0,0,5.37-1.29,13.76,13.76,0,0,0,1.95-1.37A2.31,2.31,0,0,1,41,492l8,9.63a2.32,2.32,0,0,1-.29,3.27,28.08,28.08,0,0,1-7.27,4.27,31.81,31.81,0,0,1-12.11,2.17,31.85,31.85,0,0,1-11.47-2.06,27.66,27.66,0,0,1-9.33-5.83,27.37,27.37,0,0,1-6.24-9A28.51,28.51,0,0,1,0,482.88Z"/><path class="cls-2" d="M53.63,482.57a28.76,28.76,0,0,1,2.29-11.69A26,26,0,0,1,62.2,462a28.07,28.07,0,0,1,9.49-5.63,36.63,36.63,0,0,1,23.76,0A28.54,28.54,0,0,1,105,462a25.73,25.73,0,0,1,6.32,8.88,28.93,28.93,0,0,1,2.29,11.69,29.72,29.72,0,0,1-2.29,11.81,26.52,26.52,0,0,1-6.32,9.1,28.34,28.34,0,0,1-9.53,5.83,35.29,35.29,0,0,1-23.76,0,27.88,27.88,0,0,1-9.49-5.83,26.84,26.84,0,0,1-6.28-9.1A29.55,29.55,0,0,1,53.63,482.57Zm19.28,0a14.08,14.08,0,0,0,.8,4.88,11.72,11.72,0,0,0,2.2,3.81,9.7,9.7,0,0,0,3.39,2.47,10.36,10.36,0,0,0,4.27.88,10.11,10.11,0,0,0,4.23-.88,10.28,10.28,0,0,0,3.39-2.47,11.65,11.65,0,0,0,2.25-3.81,14.31,14.31,0,0,0,.8-4.88,13.78,13.78,0,0,0-.8-4.76,10.38,10.38,0,0,0-2.25-3.66A10.49,10.49,0,0,0,83.57,471a10.84,10.84,0,0,0-4.27.84,10,10,0,0,0-3.39,2.32,10.43,10.43,0,0,0-2.2,3.66A13.55,13.55,0,0,0,72.91,482.57Z"/><path class="cls-3" d="M138.8,479.37l.77,28.09a2.32,2.32,0,0,1-2.32,2.39h-12.2a2.33,2.33,0,0,1-2.32-2.33V458.23a2.32,2.32,0,0,1,2.32-2.32h19.73a2.33,2.33,0,0,1,2.2,1.58l9.23,27.44h.38l8-27.35a2.33,2.33,0,0,1,2.23-1.67h20.41a2.32,2.32,0,0,1,2.33,2.32v49.29a2.33,2.33,0,0,1-2.33,2.33h-13a2.32,2.32,0,0,1-2.32-2.37l.49-28-.46-.08-9.53,28.8a2.32,2.32,0,0,1-2.2,1.6h-9.44a2.34,2.34,0,0,1-2.21-1.61l-9.38-28.87Z"/><path class="cls-4" d="M203.36,455.91h32.46a2.32,2.32,0,0,1,2.32,2.32v10.44a2.32,2.32,0,0,1-2.32,2.32H220.43a2.32,2.32,0,0,0-2.32,2.33h0a2.32,2.32,0,0,0,2.32,2.32H234.6a2.32,2.32,0,0,1,2.32,2.32v9.45a2.32,2.32,0,0,1-2.32,2.32H220.43a2.32,2.32,0,0,0-2.32,2.33v.38a2.32,2.32,0,0,0,2.32,2.32h16.68a2.32,2.32,0,0,1,2.33,2.32v10.44a2.33,2.33,0,0,1-2.33,2.33H203.36a2.33,2.33,0,0,1-2.32-2.33V458.23A2.32,2.32,0,0,1,203.36,455.91Z"/><path class="cls-5" d="M273.07,509.85H259.59a2.33,2.33,0,0,1-2.33-2.33v-34a2.32,2.32,0,0,0-2.32-2.33h-8.61A2.32,2.32,0,0,1,244,468.9V458.23a2.32,2.32,0,0,1,2.32-2.32h40a2.32,2.32,0,0,1,2.33,2.32V468.9a2.32,2.32,0,0,1-2.33,2.32h-8.6a2.33,2.33,0,0,0-2.33,2.33v34A2.33,2.33,0,0,1,273.07,509.85Z"/><path class="cls-6" d="M288.42,501.24a9.38,9.38,0,0,1,.8-3.85,9.69,9.69,0,0,1,2.21-3.12,11.14,11.14,0,0,1,3.28-2.14,9.89,9.89,0,0,1,3.92-.8,9.18,9.18,0,0,1,3.77.8,11,11,0,0,1,3.16,2.14,10.05,10.05,0,0,1,2.17,3.12,9.22,9.22,0,0,1,.8,3.85,9.71,9.71,0,0,1-3,7,10.49,10.49,0,0,1-3.16,2.05,9.48,9.48,0,0,1-3.77.76,10.21,10.21,0,0,1-3.92-.76,10.71,10.71,0,0,1-3.28-2.05,9.22,9.22,0,0,1-2.21-3.13A9.63,9.63,0,0,1,288.42,501.24Z"/><path class="cls-7" d="M340.78,509.85h-14.7a2.34,2.34,0,0,1-2.25-1.72L310.4,458.84a2.32,2.32,0,0,1,2.24-2.93h14.23a2.33,2.33,0,0,1,2.29,1.89l5.43,28.43h.3l5.87-28.47a2.31,2.31,0,0,1,2.27-1.85h15.21a2.32,2.32,0,0,1,2.27,1.82l6.38,28.5h.3l5.5-28.44a2.32,2.32,0,0,1,2.28-1.88h13.62a2.33,2.33,0,0,1,2.24,2.95l-13.72,49.28a2.32,2.32,0,0,1-2.24,1.71h-14.7a2.33,2.33,0,0,1-2.26-1.76l-7.17-28.72h-.31L343,508.1A2.32,2.32,0,0,1,340.78,509.85Z"/><path class="cls-8" d="M394.85,482.57a28.92,28.92,0,0,1,2.28-11.69,25.92,25.92,0,0,1,6.29-8.88,27.92,27.92,0,0,1,9.48-5.63,36.66,36.66,0,0,1,23.77,0,28.4,28.4,0,0,1,9.52,5.63,25.73,25.73,0,0,1,6.32,8.88,28.76,28.76,0,0,1,2.29,11.69,29.55,29.55,0,0,1-2.29,11.81,26.52,26.52,0,0,1-6.32,9.1,28.2,28.2,0,0,1-9.52,5.83,35.31,35.31,0,0,1-23.77,0,27.74,27.74,0,0,1-9.48-5.83,26.72,26.72,0,0,1-6.29-9.1A29.72,29.72,0,0,1,394.85,482.57Zm19.27,0a14.31,14.31,0,0,0,.8,4.88,11.74,11.74,0,0,0,2.21,3.81,9.7,9.7,0,0,0,3.39,2.47,10.32,10.32,0,0,0,4.26.88,10.1,10.1,0,0,0,7.62-3.35,11.31,11.31,0,0,0,2.25-3.81,14.31,14.31,0,0,0,.8-4.88,13.78,13.78,0,0,0-.8-4.76,10.1,10.1,0,0,0-2.25-3.66,10.39,10.39,0,0,0-3.39-2.32,10.51,10.51,0,0,0-4.23-.84,10.79,10.79,0,0,0-4.26.84,10,10,0,0,0-3.39,2.32,10.45,10.45,0,0,0-2.21,3.66A13.78,13.78,0,0,0,414.12,482.57Z"/><path class="cls-9" d="M463.94,458.23a2.32,2.32,0,0,1,2.32-2.32h20.92a39.61,39.61,0,0,1,7.88.8,19.8,19.8,0,0,1,7,2.82,15.21,15.21,0,0,1,5,5.41,17.15,17.15,0,0,1,1.9,8.49,15.73,15.73,0,0,1-2.43,8.72,14.94,14.94,0,0,1-4.87,4.71,2.34,2.34,0,0,0-.79,3.24L511,506.29a2.32,2.32,0,0,1-2,3.56H493.79a2.33,2.33,0,0,1-2-1.23l-9.68-18.05h-.53v16.95a2.33,2.33,0,0,1-2.32,2.33h-13a2.33,2.33,0,0,1-2.32-2.33Zm17.45,18.13a2.32,2.32,0,0,0,2.32,2.33h1.23a13.5,13.5,0,0,0,2-.16,6.16,6.16,0,0,0,2-.64,4.65,4.65,0,0,0,1.59-1.37,3.85,3.85,0,0,0,.64-2.33,4.18,4.18,0,0,0-.53-2.28,3.36,3.36,0,0,0-1.36-1.26,5.21,5.21,0,0,0-1.81-.53,15.1,15.1,0,0,0-1.81-.12h-2a2.32,2.32,0,0,0-2.32,2.33Z"/><path class="cls-10" d="M522.18,455.91h13.64a2.32,2.32,0,0,1,2.32,2.32V491.9a2.32,2.32,0,0,0,2.32,2.33h13.26a2.32,2.32,0,0,1,2.32,2.32v11a2.33,2.33,0,0,1-2.32,2.33H522.18a2.33,2.33,0,0,1-2.32-2.33V458.23A2.32,2.32,0,0,1,522.18,455.91Z"/><path class="cls-11" d="M563.2,507.52V458.23a2.32,2.32,0,0,1,2.33-2.32h17.78a57.69,57.69,0,0,1,12.23,1.26,28.15,28.15,0,0,1,10.29,4.34A22.42,22.42,0,0,1,613,469.7q2.67,5.1,2.67,12.87a27.51,27.51,0,0,1-2.56,12.27,24,24,0,0,1-6.81,8.49,29,29,0,0,1-9.83,4.92,42,42,0,0,1-11.58,1.6H565.53A2.33,2.33,0,0,1,563.2,507.52Zm17.45-33.9V491.9a2.32,2.32,0,0,0,2.32,2.33h1q6.4,0,9.83-2.77t3.43-9.08a10.17,10.17,0,0,0-3.43-8.16q-3.44-2.93-9.14-2.92H583A2.32,2.32,0,0,0,580.65,473.62Z"/><path class="cls-12" d="M104.34,238.41C56.12,269.7,78,362.32,78,362.32s72.31,56.38,120,28.81L501.07,211.7a13.93,13.93,0,1,0-15.17-23.37S467,200.52,467,200.48a8.52,8.52,0,0,1-8.37-14.81l66-43a13.93,13.93,0,1,0-15.17-23.37l-43.65,28.25a8.54,8.54,0,0,1-9.3-14.33l89.29-58a13.93,13.93,0,1,0-15.17-23.37l-89.36,57.91a8.54,8.54,0,0,1-9.3-14.33L452.8,81.79a13.93,13.93,0,1,0-15.17-23.37L393.56,86.85l0-.06a8.48,8.48,0,0,1-9.42-14c-.06,0,73.34-47.73,73.34-47.73l0-.05A13.92,13.92,0,0,0,442.31,1.7l0,0S104.63,238.22,104.34,238.41Z"/><circle class="cls-13" cx="375.23" cy="261.97" r="12.09"/><path class="cls-14" d="M104.34,238.41a89.59,89.59,0,0,0,93.58,152.72l128.83-83.4a12,12,0,1,0-13.06-20.11s-16.28,10.49-16.27,10.45a7.33,7.33,0,0,1-7.21-12.74l56.77-37a12,12,0,0,0-13.05-20.12l-37.57,24.31a7.35,7.35,0,0,1-8-12.33l76.84-49.94a12,12,0,0,0-13.05-20.12L275.24,220a7.34,7.34,0,1,1-8-12.32l18-11.74a12,12,0,1,0-13-20.11l-37.93,24.47,0,0a7.3,7.3,0,0,1-8.11-12.08c-.05,0,63.12-41.08,63.12-41.08l0,0a12,12,0,0,0-13-20l0,0Z"/><path class="cls-15" d="M248.15,306.55l-4.52,2.86A7.41,7.41,0,1,1,235.56,297l23.27-15.18a12.09,12.09,0,0,0-13.16-20.28l-13.61,8.76A7.41,7.41,0,0,1,224,257.85l22.3-14.54A12.09,12.09,0,1,0,233.12,223L199,244.94a7.38,7.38,0,0,1-6.44.31l-.68-.34a7.29,7.29,0,0,1-1.06-12.14s17.75-11.7,17.75-11.7a12.08,12.08,0,0,0-13.11-20.2l-81.15,53.81a70.51,70.51,0,0,0,77.17,118l69.81-45.87a12.09,12.09,0,0,0-13.16-20.28Z"/><path class="cls-16" d="M200.06,337.72l-4.52,2.86a7.41,7.41,0,0,1-8.07-12.43L210.74,313a12.09,12.09,0,0,0-13.16-20.28L184,301.45A7.41,7.41,0,0,1,175.9,289l22.29-14.54A12.09,12.09,0,0,0,185,254.19l-34.11,21.93a7.45,7.45,0,0,1-6.44.31l-.67-.35a7.29,7.29,0,0,1-1.06-12.14c-.05,0,17.75-11.69,17.75-11.69,5-3.8,6.5-11,2.8-16.18s-9.83-6.71-15.32-3.71l-33.65,22.32a70.51,70.51,0,0,0,77.17,118L213.22,358a12.09,12.09,0,0,0-13.16-20.29Z"/><circle class="cls-13" cx="396.89" cy="155.41" r="12.09"/><circle class="cls-13" cx="313.12" cy="115.07" r="12.09"/><path class="cls-17" d="M197.92,391.13a89.59,89.59,0,0,1-93.58-152.72l75.31-48.85Z"/></svg>